<?xml version="1.0" encoding="utf-8"?>
<!-- Generator: Adobe Illustrator 23.0.0, SVG Export Plug-In . SVG Version: 6.00 Build 0)  -->
<svg version="1.1" id="katman_1" xmlns="http://www.w3.org/2000/svg" xmlns:xlink="http://www.w3.org/1999/xlink" x="0px" y="0px"
	 viewBox="0 0 200 100" style="enable-background:new 0 0 200 100;" xml:space="preserve">
<style type="text/css">
	.st0{fill-rule:evenodd;clip-rule:evenodd;fill:#00A0DF;}
	.st1{fill:#FFFFFF;}
	.st2{fill-rule:evenodd;clip-rule:evenodd;fill:#FFFFFF;}
	.st3{fill:#001B71;}
	.st4{fill-rule:evenodd;clip-rule:evenodd;fill:#001B71;}
</style>
<rect x="109.6" y="8.9" class="st0" width="82.3" height="82.3"/>
<path class="st1" d="M112.9,52.3h3.4v5.3h3.3v2.7l-3.3,0v9.8c0,0.9,0.7,1.6,1.6,1.6h1.6v2.9h-2.1c-2.5,0-4.5-2-4.5-4.5v-9.8l-1.9,0
	v-2.7h1.9V52.3z"/>
<path class="st1" d="M153.9,57.2h3.5v1.7c0.8-0.6,2.5-1.9,4.6-1.9c2.9,0,5.7,2,5.7,5.5v12h-3.4V63.2c0,0-0.2-3-3.3-3
	c-2,0-3.6,1.5-3.6,3.4v11.1h-3.5V57.2z"/>
<path class="st2" d="M124.4,66.8h11v-2.3c0,0,0.1-7.6-7.4-7.6c-7.2,0-7.1,9.2-7.1,9.2s0.1,8.6,7.1,8.6c5.3,0,6.9-2.8,6.9-2.8
	l-2.1-2.2c0,0-1.3,1.9-4.1,1.9C124.1,71.6,124.4,66.8,124.4,66.8"/>
<path class="st0" d="M124.5,64.2h7.5c0,0,0-4.4-3.8-4.4C124.4,59.8,124.5,64.2,124.5,64.2"/>
<polygon class="st1" points="147.6,57.2 151.7,57.2 145.8,64.1 152.5,74.6 148.2,74.6 143.5,66.7 141.1,69.5 141.1,74.6 137.5,74.6 
	137.5,50.2 141.1,50.2 141.1,65.2 "/>
<polygon class="st1" points="185.7,57.2 189.8,57.2 183.8,64.1 190.5,74.6 186.2,74.6 181.5,66.7 179.1,69.5 179.1,74.6 175.6,74.6 
	175.6,50.2 179.1,50.2 179.1,65.2 "/>
<rect x="169.9" y="57.4" class="st1" width="3.5" height="17.2"/>
<rect x="169.9" y="52.1" class="st2" width="3.5" height="3.5"/>
<rect x="8.1" y="57.4" class="st3" width="3.5" height="17.2"/>
<path class="st4" d="M24.4,61l2-2.1c0,0-1.8-2-6.4-2s-6.3,3.1-6.3,5.3c0,2.1,1.4,4.8,5.7,4.8c4.3,0,4.3,1.5,4.3,2.3
	c0,0.7-0.8,2.6-3.8,2.6c-3,0-4.9-2-4.9-2l-2.2,2.3c0,0,2.1,2.6,7,2.6c4.9,0,7.4-2.7,7.4-5.5c0-2.8-2.4-5.1-4.9-5.1
	c-2.5,0-5.3,0.1-5.3-2.1s2.5-2.3,3.6-2.3C22.9,59.7,24.4,61,24.4,61"/>
<path class="st3" d="M29.4,52.1h3.4v5.3h3.3v2.7l-3.3,0v9.8c0,0.9,0.7,1.6,1.6,1.6h1.6v2.9H34c-2.5,0-4.5-2-4.5-4.5v-9.8l-1.9,0
	v-2.7h1.9V52.1z"/>
<path class="st3" d="M53.5,57.2H57v1.7c0.8-0.6,2.5-1.9,4.6-1.9c2.9,0,5.7,2,5.7,5.5v12h-3.4V63.2c0,0-0.2-3-3.3-3
	c-2,0-3.6,1.5-3.6,3.4v11.1h-3.5V57.2z"/>
<path class="st3" d="M99.4,74.6h-3.5v-1.7c-0.8,0.6-2.5,1.9-4.6,1.9c-2.9,0-5.7-2-5.7-5.5v-12h3.4v11.4c0,0,0.2,3,3.3,3
	c2,0,3.6-1.5,3.6-3.4V57.3h3.5V74.6z"/>
<path class="st4" d="M44.8,57c-4.4,0-6.5,2.5-6.5,2.5l2.1,2.3c0,0,1.3-1.7,4.1-1.7c3.1,0,3.4,2.6,3.4,2.6v2.1h-5.5
	c-1.5,0-4.7,0.8-4.7,4.8c0,4.1,2.8,5.3,5.8,5.3c3,0,4.5-1.7,4.5-1.7v1.5h3.3V61.7C51.4,59.9,49.3,57,44.8,57 M48,69.8
	c0,0-0.6,2.3-3.7,2.3c-3.1,0-3.2-2.3-3.2-2.8c0-0.5,0.7-2.4,2.8-2.4H48V69.8z"/>
<path class="st3" d="M101.6,50.2h3.4v19.9c0,0.9,0.7,1.6,1.6,1.6h1.6v2.9h-2.1c-2.5,0-4.5-2-4.5-4.5V50.2z"/>
<path class="st3" d="M73.2,64.3V68c0,2.2,1.6,3.9,3.5,3.9c1.9,0,3.5-1.8,3.5-3.9v-3.7c0-2.2-1.6-3.9-3.5-3.9
	C74.8,60.3,73.2,62.1,73.2,64.3 M69.5,50.2H73v9.2c0.8-1.4,2.3-2.3,3.9-2.3h0.6c3.2,0,5.8,2.6,5.8,5.8v5.8c0,3.4-2.7,6.1-6.1,6.1H77
	c-1.7,0-3.2-0.9-3.9-2.3v2h-3.5V50.2z"/>
<rect x="8.1" y="52.1" class="st4" width="3.5" height="3.5"/>
<rect x="109.6" y="8.9" class="st0" width="82.3" height="82.3"/>
<path class="st1" d="M112.9,52.3h3.4v5.3h3.3v2.7l-3.3,0v9.8c0,0.9,0.7,1.6,1.6,1.6h1.6v2.9h-2.1c-2.5,0-4.5-2-4.5-4.5v-9.8l-1.9,0
	v-2.7h1.9V52.3z"/>
<path class="st1" d="M153.9,57.2h3.5v1.7c0.8-0.6,2.5-1.9,4.6-1.9c2.9,0,5.7,2,5.7,5.5v12h-3.4V63.2c0,0-0.2-3-3.3-3
	c-2,0-3.6,1.5-3.6,3.4v11.1h-3.5V57.2z"/>
<path class="st2" d="M124.4,66.8h11v-2.3c0,0,0.1-7.6-7.4-7.6c-7.2,0-7.1,9.2-7.1,9.2s0.1,8.6,7.1,8.6c5.3,0,6.9-2.8,6.9-2.8
	l-2.1-2.2c0,0-1.3,1.9-4.1,1.9C124.1,71.6,124.4,66.8,124.4,66.8"/>
<path class="st0" d="M124.5,64.2h7.5c0,0,0-4.4-3.8-4.4C124.4,59.8,124.5,64.2,124.5,64.2"/>
<polygon class="st1" points="147.6,57.2 151.7,57.2 145.8,64.1 152.5,74.6 148.2,74.6 143.5,66.7 141.1,69.5 141.1,74.6 137.5,74.6 
	137.5,50.2 141.1,50.2 141.1,65.2 "/>
<polygon class="st1" points="185.7,57.2 189.8,57.2 183.8,64.1 190.5,74.6 186.2,74.6 181.5,66.7 179.1,69.5 179.1,74.6 175.6,74.6 
	175.6,50.2 179.1,50.2 179.1,65.2 "/>
<rect x="169.9" y="57.4" class="st1" width="3.5" height="17.2"/>
<rect x="169.9" y="52.1" class="st2" width="3.5" height="3.5"/>
<rect x="8.1" y="57.4" class="st3" width="3.5" height="17.2"/>
<path class="st4" d="M24.4,61l2-2.1c0,0-1.8-2-6.4-2s-6.3,3.1-6.3,5.3c0,2.1,1.4,4.8,5.7,4.8c4.3,0,4.3,1.5,4.3,2.3
	c0,0.7-0.8,2.6-3.8,2.6c-3,0-4.9-2-4.9-2l-2.2,2.3c0,0,2.1,2.6,7,2.6c4.9,0,7.4-2.7,7.4-5.5c0-2.8-2.4-5.1-4.9-5.1
	c-2.5,0-5.3,0.1-5.3-2.1s2.5-2.3,3.6-2.3C22.9,59.7,24.4,61,24.4,61"/>
<path class="st3" d="M29.4,52.1h3.4v5.3h3.3v2.7l-3.3,0v9.8c0,0.9,0.7,1.6,1.6,1.6h1.6v2.9H34c-2.5,0-4.5-2-4.5-4.5v-9.8l-1.9,0
	v-2.7h1.9V52.1z"/>
<path class="st3" d="M53.5,57.2H57v1.7c0.8-0.6,2.5-1.9,4.6-1.9c2.9,0,5.7,2,5.7,5.5v12h-3.4V63.2c0,0-0.2-3-3.3-3
	c-2,0-3.6,1.5-3.6,3.4v11.1h-3.5V57.2z"/>
<path class="st3" d="M99.4,74.6h-3.5v-1.7c-0.8,0.6-2.5,1.9-4.6,1.9c-2.9,0-5.7-2-5.7-5.5v-12h3.4v11.4c0,0,0.2,3,3.3,3
	c2,0,3.6-1.5,3.6-3.4V57.3h3.5V74.6z"/>
<path class="st4" d="M44.8,57c-4.4,0-6.5,2.5-6.5,2.5l2.1,2.3c0,0,1.3-1.7,4.1-1.7c3.1,0,3.4,2.6,3.4,2.6v2.1h-5.5
	c-1.5,0-4.7,0.8-4.7,4.8c0,4.1,2.8,5.3,5.8,5.3c3,0,4.5-1.7,4.5-1.7v1.5h3.3V61.7C51.4,59.9,49.3,57,44.8,57 M48,69.8
	c0,0-0.6,2.3-3.7,2.3c-3.1,0-3.2-2.3-3.2-2.8c0-0.5,0.7-2.4,2.8-2.4H48V69.8z"/>
<path class="st3" d="M101.6,50.2h3.4v19.9c0,0.9,0.7,1.6,1.6,1.6h1.6v2.9h-2.1c-2.5,0-4.5-2-4.5-4.5V50.2z"/>
<path class="st3" d="M73.2,64.3V68c0,2.2,1.6,3.9,3.5,3.9c1.9,0,3.5-1.8,3.5-3.9v-3.7c0-2.2-1.6-3.9-3.5-3.9
	C74.8,60.3,73.2,62.1,73.2,64.3 M69.5,50.2H73v9.2c0.8-1.4,2.3-2.3,3.9-2.3h0.6c3.2,0,5.8,2.6,5.8,5.8v5.8c0,3.4-2.7,6.1-6.1,6.1H77
	c-1.7,0-3.2-0.9-3.9-2.3v2h-3.5V50.2z"/>
<rect x="8.1" y="52.1" class="st4" width="3.5" height="3.5"/>
</svg>
